<?xml version="1.0" ?><!DOCTYPE svg  PUBLIC '-//W3C//DTD SVG 1.1//EN'  'http://www.w3.org/Graphics/SVG/1.1/DTD/svg11.dtd'><svg height="1.6699in" style="shape-rendering:geometricPrecision; text-rendering:geometricPrecision; image-rendering:optimizeQuality; fill-rule:evenodd; clip-rule:evenodd" version="1.1" viewBox="0 0 664 664" width="1.6699in" xml:space="preserve" xmlns="http://www.w3.org/2000/svg" xmlns:xlink="http://www.w3.org/1999/xlink"><defs><style type="text/css">
   <![CDATA[
    .fil1 {fill:#FEFEFE}
    .fil3 {fill:#DCDDDD}
    .fil0 {fill:#C9CACA}
    .fil6 {fill:#332C2B}
    .fil5 {fill:#FFF000}
    .fil2 {fill:#F9262D}
    .fil4 {fill:#FEE226}
    .fil7 {fill:#FEFEFE;fill-opacity:0.501961}
   ]]>
  </style></defs><g id="Layer_x0020_1"><g id="_1853870224752"><circle class="fil0" cx="332" cy="332" r="332"/><path class="fil1" d="M646 332c0,173 -141,314 -314,314 -173,0 -314,-141 -314,-314l628 0z"/><path class="fil2" d="M332 18c173,0 314,141 314,314l-628 0c0,-173 141,-314 314,-314z"/><path class="fil3" d="M109 531c66,83 351,88 519,-144 -86,330 -446,263 -519,144z"/><polygon class="fil4" points="242,112 369,20 427,90 344,129 379,187 191,277 167,235 274,168 "/><path class="fil5" d="M588 520c-30,-56 -47,-120 -47,-188 0,-68 17,-132 47,-188 38,53 61,118 61,188 0,70 -23,135 -61,188z"/><path class="fil5" d="M79 520c30,-56 47,-120 47,-188 0,-68 -17,-132 -47,-188 -38,53 -61,118 -61,188 0,70 23,135 61,188z"/><path class="fil6" d="M645 307c1,8 1,17 1,25 0,7 0,14 -1,20l-626 0c-1,-6 -1,-13 -1,-20 0,-8 0,-17 1,-25l626 0z"/><circle class="fil6" cx="332" cy="332" r="105"/><circle class="fil1" cx="332" cy="332" r="69"/><path class="fil7" d="M51 258c0,0 6,-107 129,-185 124,-78 118,-13 89,13 -20,17 -162,18 -218,172z"/></g></g></svg>